<?xml version="1.0" encoding="UTF-8"?>
<svg id="Layer_2" data-name="Layer 2" xmlns="http://www.w3.org/2000/svg" viewBox="0 0 16.47 24">
  <defs>
    <style>
      .cls-1 {
        fill: #fff;
      }
    </style>
  </defs>
  <path class="cls-1" d="M16.45,23.01c-.02-.13-.36-1.01-.43-1.17-.57-1.23-2.04-3.1-3.09-3.99-4.45-3.81-8.83-1.49-11.57,2.53-.39.57-.88,1.58-1.12,2.23-.14.38-.36.49-.14,1,0,.01.01.03.02.04.24.5.98.44,1.16-.08.9-2.55,3.1-5.15,5.65-6.05.63-.22,2.08-.17,2.73.03,1.95.58,4.23,3.08,5.1,4.87.18.37.33.75.45,1.14.17.54.92.62,1.17.11h0c.09-.18.12-.4.08-.65Z"/>
  <path class="cls-1" d="M11.34,5.47c1.09.64,1.63-1.32,1.68-2.09.07-.87-.11-3.75-1.52-3.32-.37.11-.77.97-.86,1.33-.25.93-.23,3.52.7,4.08Z"/>
  <path class="cls-1" d="M5.33,5.06c.74-1.08.72-3.84-.24-4.76h0c-.29-.28-.44-.42-.89-.16-1.15.66-1.05,4-.39,4.99.46.68,1.09.58,1.52-.06Z"/>
</svg>