<?xml version="1.0" encoding="UTF-8"?>
<svg id="Layer_1" data-name="Layer 1" xmlns="http://www.w3.org/2000/svg" xmlns:xlink="http://www.w3.org/1999/xlink" viewBox="0 0 698.62 694.58">
  <defs>
    <clipPath id="clippath">
      <rect width="698.62" height="694.58" style="fill: none;"/>
    </clipPath>
  </defs>
  <g style="clip-path: url(#clippath);">
    <g>
      <path d="M76.97,21.98l-55,55c-5.11,0-7.98,0-13.09,0L.5,68.59c0-5.11,0-7.98,0-13.09L55.5.5c5.11,0,7.98,0,13.09,0l8.38,8.38v13.09Z" style="fill: #4d4d4e; stroke: #000; stroke-miterlimit: 10;"/>
      <path d="M164.45,21.98l-55,55c-5.11,0-7.98,0-13.09,0l-8.38-8.38c0-5.11,0-7.98,0-13.09L142.97.5c5.11,0,7.98,0,13.09,0l8.38,8.38v13.09Z" style="fill: #4d4d4e; stroke: #000; stroke-miterlimit: 10;"/>
      <path d="M251.92,21.98l-55,55c-5.11,0-7.98,0-13.09,0l-8.38-8.38c0-5.11,0-7.98,0-13.09L230.45.5c5.11,0,7.98,0,13.09,0l8.38,8.38v13.09Z" style="fill: #4d4d4e; stroke: #000; stroke-miterlimit: 10;"/>
      <path d="M339.4,21.98l-55,55c-5.11,0-7.98,0-13.09,0l-8.38-8.38c0-5.11,0-7.98,0-13.09L317.92.5c5.11,0,7.98,0,13.09,0l8.38,8.38v13.09Z" style="fill: #4d4d4e; stroke: #000; stroke-miterlimit: 10;"/>
      <path d="M426.87,21.98l-55,55c-5.11,0-7.98,0-13.09,0l-8.38-8.38c0-5.11,0-7.98,0-13.09L405.4.5c5.11,0,7.98,0,13.09,0l8.38,8.38v13.09Z" style="fill: #4d4d4e; stroke: #000; stroke-miterlimit: 10;"/>
      <path d="M514.35,21.98l-55,55c-5.11,0-7.98,0-13.09,0l-8.38-8.38c0-5.11,0-7.98,0-13.09L492.87.5c5.11,0,7.98,0,13.09,0l8.38,8.38v13.09Z" style="fill: #4d4d4e; stroke: #000; stroke-miterlimit: 10;"/>
      <path d="M601.82,21.98l-55,55c-5.11,0-7.98,0-13.09,0l-8.38-8.38c0-5.11,0-7.98,0-13.09L580.35.5c5.11,0,7.98,0,13.09,0l8.38,8.38v13.09Z" style="fill: #4d4d4e; stroke: #000; stroke-miterlimit: 10;"/>
      <path d="M689.3,21.98l-55,55c-5.11,0-7.98,0-13.09,0l-8.38-8.38c0-5.11,0-7.98,0-13.09L667.82.5c5.11,0,7.98,0,13.09,0l8.38,8.38v13.09Z" style="fill: #4d4d4e; stroke: #000; stroke-miterlimit: 10;"/>
      <path d="M76.97,109.45l-55,55c-5.11,0-7.98,0-13.09,0l-8.38-8.38c0-5.11,0-7.98,0-13.09l55-55c5.11,0,7.98,0,13.09,0l8.38,8.38v13.09Z" style="fill: #4d4d4e; stroke: #000; stroke-miterlimit: 10;"/>
      <path d="M164.45,109.45l-55,55c-5.11,0-7.98,0-13.09,0l-8.38-8.38c0-5.11,0-7.98,0-13.09l55-55c5.11,0,7.98,0,13.09,0l8.38,8.38v13.09Z" style="fill: #4d4d4e; stroke: #000; stroke-miterlimit: 10;"/>
      <path d="M251.92,109.45l-55,55c-5.11,0-7.98,0-13.09,0l-8.38-8.38c0-5.11,0-7.98,0-13.09l55-55c5.11,0,7.98,0,13.09,0l8.38,8.38v13.09Z" style="fill: #4d4d4e; stroke: #000; stroke-miterlimit: 10;"/>
      <path d="M339.4,109.45l-55,55c-5.11,0-7.98,0-13.09,0l-8.38-8.38c0-5.11,0-7.98,0-13.09l55-55c5.11,0,7.98,0,13.09,0l8.38,8.38v13.09Z" style="fill: #4d4d4e; stroke: #000; stroke-miterlimit: 10;"/>
      <path d="M426.87,109.45l-55,55c-5.11,0-7.98,0-13.09,0l-8.38-8.38c0-5.11,0-7.98,0-13.09l55-55c5.11,0,7.98,0,13.09,0l8.38,8.38v13.09Z" style="fill: #4d4d4e; stroke: #000; stroke-miterlimit: 10;"/>
      <path d="M514.35,109.45l-55,55c-5.11,0-7.98,0-13.09,0l-8.38-8.38c0-5.11,0-7.98,0-13.09l55-55c5.11,0,7.98,0,13.09,0l8.38,8.38v13.09Z" style="fill: #4d4d4e; stroke: #000; stroke-miterlimit: 10;"/>
      <path d="M601.82,109.45l-55,55c-5.11,0-7.98,0-13.09,0l-8.38-8.38c0-5.11,0-7.98,0-13.09l55-55c5.11,0,7.98,0,13.09,0l8.38,8.38v13.09Z" style="fill: #4d4d4e; stroke: #000; stroke-miterlimit: 10;"/>
      <path d="M689.3,109.45l-55,55c-5.11,0-7.98,0-13.09,0l-8.38-8.38c0-5.11,0-7.98,0-13.09l55-55c5.11,0,7.98,0,13.09,0l8.38,8.38v13.09Z" style="fill: #4d4d4e; stroke: #000; stroke-miterlimit: 10;"/>
      <path d="M76.97,196.92l-55,55c-5.11,0-7.98,0-13.09,0l-8.38-8.38c0-5.11,0-7.98,0-13.09l55-55c5.11,0,7.98,0,13.09,0l8.38,8.38v13.09Z" style="fill: #4d4d4e; stroke: #000; stroke-miterlimit: 10;"/>
      <path d="M164.45,196.92l-55,55c-5.11,0-7.98,0-13.09,0l-8.38-8.38c0-5.11,0-7.98,0-13.09l55-55c5.11,0,7.98,0,13.09,0l8.38,8.38v13.09Z" style="fill: #4d4d4e; stroke: #000; stroke-miterlimit: 10;"/>
      <path d="M251.92,196.92l-55,55c-5.11,0-7.98,0-13.09,0l-8.38-8.38c0-5.11,0-7.98,0-13.09l55-55c5.11,0,7.98,0,13.09,0l8.38,8.38v13.09Z" style="fill: #4d4d4e; stroke: #000; stroke-miterlimit: 10;"/>
      <path d="M339.4,196.92l-55,55c-5.11,0-7.98,0-13.09,0l-8.38-8.38c0-5.11,0-7.98,0-13.09l55-55c5.11,0,7.98,0,13.09,0l8.38,8.38v13.09Z" style="fill: #4d4d4e; stroke: #000; stroke-miterlimit: 10;"/>
      <path d="M426.87,196.92l-55,55c-5.11,0-7.98,0-13.09,0l-8.38-8.38c0-5.11,0-7.98,0-13.09l55-55c5.11,0,7.98,0,13.09,0l8.38,8.38v13.09Z" style="fill: #4d4d4e; stroke: #000; stroke-miterlimit: 10;"/>
      <path d="M514.35,196.92l-55,55c-5.11,0-7.98,0-13.09,0l-8.38-8.38c0-5.11,0-7.98,0-13.09l55-55c5.11,0,7.98,0,13.09,0l8.38,8.38v13.09Z" style="fill: #4d4d4e; stroke: #000; stroke-miterlimit: 10;"/>
      <path d="M601.82,196.92l-55,55c-5.11,0-7.98,0-13.09,0l-8.38-8.38c0-5.11,0-7.98,0-13.09l55-55c5.11,0,7.98,0,13.09,0l8.38,8.38v13.09Z" style="fill: #4d4d4e; stroke: #000; stroke-miterlimit: 10;"/>
      <path d="M689.3,196.92l-55,55c-5.11,0-7.98,0-13.09,0l-8.38-8.38c0-5.11,0-7.98,0-13.09l55-55c5.11,0,7.98,0,13.09,0l8.38,8.38v13.09Z" style="fill: #4d4d4e; stroke: #000; stroke-miterlimit: 10;"/>
      <path d="M76.97,284.4l-55,55c-5.11,0-7.98,0-13.09,0l-8.38-8.38c0-5.11,0-7.98,0-13.09l55-55c5.11,0,7.98,0,13.09,0l8.38,8.38v13.09Z" style="fill: #4d4d4e; stroke: #000; stroke-miterlimit: 10;"/>
      <path d="M164.45,284.4l-55,55c-5.11,0-7.98,0-13.09,0l-8.38-8.38c0-5.11,0-7.98,0-13.09l55-55c5.11,0,7.98,0,13.09,0l8.38,8.38v13.09Z" style="fill: #4d4d4e; stroke: #000; stroke-miterlimit: 10;"/>
      <path d="M251.92,284.4l-55,55c-5.11,0-7.98,0-13.09,0l-8.38-8.38c0-5.11,0-7.98,0-13.09l55-55c5.11,0,7.98,0,13.09,0l8.38,8.38v13.09Z" style="fill: #4d4d4e; stroke: #000; stroke-miterlimit: 10;"/>
      <path d="M339.4,284.4l-55,55c-5.11,0-7.98,0-13.09,0l-8.38-8.38c0-5.11,0-7.98,0-13.09l55-55c5.11,0,7.98,0,13.09,0l8.38,8.38v13.09Z" style="fill: #4d4d4e; stroke: #000; stroke-miterlimit: 10;"/>
      <path d="M426.87,284.4l-55,55c-5.11,0-7.98,0-13.09,0l-8.38-8.38c0-5.11,0-7.98,0-13.09l55-55c5.11,0,7.98,0,13.09,0l8.38,8.38v13.09Z" style="fill: #4d4d4e; stroke: #000; stroke-miterlimit: 10;"/>
      <path d="M514.35,284.4l-55,55c-5.11,0-7.98,0-13.09,0l-8.38-8.38c0-5.11,0-7.98,0-13.09l55-55c5.11,0,7.98,0,13.09,0l8.38,8.38v13.09Z" style="fill: #4d4d4e; stroke: #000; stroke-miterlimit: 10;"/>
      <path d="M601.82,284.4l-55,55c-5.11,0-7.98,0-13.09,0l-8.38-8.38c0-5.11,0-7.98,0-13.09l55-55c5.11,0,7.98,0,13.09,0l8.38,8.38v13.09Z" style="fill: #4d4d4e; stroke: #000; stroke-miterlimit: 10;"/>
      <path d="M689.3,284.4l-55,55c-5.11,0-7.98,0-13.09,0l-8.38-8.38c0-5.11,0-7.98,0-13.09l55-55c5.11,0,7.98,0,13.09,0l8.38,8.38v13.09Z" style="fill: #4d4d4e; stroke: #000; stroke-miterlimit: 10;"/>
      <path d="M76.97,371.87l-55,55c-5.11,0-7.98,0-13.09,0l-8.38-8.38c0-5.11,0-7.98,0-13.09l55-55c5.11,0,7.98,0,13.09,0l8.38,8.38v13.09Z" style="fill: #4d4d4e; stroke: #000; stroke-miterlimit: 10;"/>
      <path d="M164.45,371.87l-55,55c-5.11,0-7.98,0-13.09,0l-8.38-8.38c0-5.11,0-7.98,0-13.09l55-55c5.11,0,7.98,0,13.09,0l8.38,8.38v13.09Z" style="fill: #4d4d4e; stroke: #000; stroke-miterlimit: 10;"/>
      <path d="M251.92,371.87l-55,55c-5.11,0-7.98,0-13.09,0l-8.38-8.38c0-5.11,0-7.98,0-13.09l55-55c5.11,0,7.98,0,13.09,0l8.38,8.38v13.09Z" style="fill: #4d4d4e; stroke: #000; stroke-miterlimit: 10;"/>
      <path d="M339.4,371.87l-55,55c-5.11,0-7.98,0-13.09,0l-8.38-8.38c0-5.11,0-7.98,0-13.09l55-55c5.11,0,7.98,0,13.09,0l8.38,8.38v13.09Z" style="fill: #4d4d4e; stroke: #000; stroke-miterlimit: 10;"/>
      <path d="M426.87,371.87l-55,55c-5.11,0-7.98,0-13.09,0l-8.38-8.38c0-5.11,0-7.98,0-13.09l55-55c5.11,0,7.98,0,13.09,0l8.38,8.38v13.09Z" style="fill: #4d4d4e; stroke: #000; stroke-miterlimit: 10;"/>
      <path d="M514.35,371.87l-55,55c-5.11,0-7.98,0-13.09,0l-8.38-8.38c0-5.11,0-7.98,0-13.09l55-55c5.11,0,7.98,0,13.09,0l8.38,8.38v13.09Z" style="fill: #4d4d4e; stroke: #000; stroke-miterlimit: 10;"/>
      <path d="M601.82,371.87l-55,55c-5.11,0-7.98,0-13.09,0l-8.38-8.38c0-5.11,0-7.98,0-13.09l55-55c5.11,0,7.98,0,13.09,0l8.38,8.38v13.09Z" style="fill: #4d4d4e; stroke: #000; stroke-miterlimit: 10;"/>
      <path d="M689.3,371.87l-55,55c-5.11,0-7.98,0-13.09,0l-8.38-8.38c0-5.11,0-7.98,0-13.09l55-55c5.11,0,7.98,0,13.09,0l8.38,8.38v13.09Z" style="fill: #4d4d4e; stroke: #000; stroke-miterlimit: 10;"/>
      <path d="M76.97,459.35l-55,55c-5.11,0-7.98,0-13.09,0l-8.38-8.38c0-5.11,0-7.98,0-13.09l55-55c5.11,0,7.98,0,13.09,0l8.38,8.38v13.09Z" style="fill: #4d4d4e; stroke: #000; stroke-miterlimit: 10;"/>
      <path d="M164.45,459.35l-55,55c-5.11,0-7.98,0-13.09,0l-8.38-8.38c0-5.11,0-7.98,0-13.09l55-55c5.11,0,7.98,0,13.09,0l8.38,8.38v13.09Z" style="fill: #4d4d4e; stroke: #000; stroke-miterlimit: 10;"/>
      <path d="M251.92,459.35l-55,55c-5.11,0-7.98,0-13.09,0l-8.38-8.38c0-5.11,0-7.98,0-13.09l55-55c5.11,0,7.98,0,13.09,0l8.38,8.38v13.09Z" style="fill: #4d4d4e; stroke: #000; stroke-miterlimit: 10;"/>
      <path d="M339.4,459.35l-55,55c-5.11,0-7.98,0-13.09,0l-8.38-8.38c0-5.11,0-7.98,0-13.09l55-55c5.11,0,7.98,0,13.09,0l8.38,8.38v13.09Z" style="fill: #4d4d4e; stroke: #000; stroke-miterlimit: 10;"/>
      <path d="M426.87,459.35l-55,55c-5.11,0-7.98,0-13.09,0l-8.38-8.38c0-5.11,0-7.98,0-13.09l55-55c5.11,0,7.98,0,13.09,0l8.38,8.38v13.09Z" style="fill: #4d4d4e; stroke: #000; stroke-miterlimit: 10;"/>
      <path d="M514.35,459.35l-55,55c-5.11,0-7.98,0-13.09,0l-8.38-8.38c0-5.11,0-7.98,0-13.09l55-55c5.11,0,7.98,0,13.09,0l8.38,8.38v13.09Z" style="fill: #4d4d4e; stroke: #000; stroke-miterlimit: 10;"/>
      <path d="M601.82,459.35l-55,55c-5.11,0-7.98,0-13.09,0l-8.38-8.38c0-5.11,0-7.98,0-13.09l55-55c5.11,0,7.98,0,13.09,0l8.38,8.38v13.09Z" style="fill: #4d4d4e; stroke: #000; stroke-miterlimit: 10;"/>
      <path d="M689.3,459.35l-55,55c-5.11,0-7.98,0-13.09,0l-8.38-8.38c0-5.11,0-7.98,0-13.09l55-55c5.11,0,7.98,0,13.09,0l8.38,8.38v13.09Z" style="fill: #4d4d4e; stroke: #000; stroke-miterlimit: 10;"/>
      <path d="M76.97,546.82l-55,55c-5.11,0-7.98,0-13.09,0l-8.38-8.38c0-5.11,0-7.98,0-13.09l55-55c5.11,0,7.98,0,13.09,0l8.38,8.38v13.09Z" style="fill: #4d4d4e; stroke: #000; stroke-miterlimit: 10;"/>
      <path d="M164.45,546.82l-55,55c-5.11,0-7.98,0-13.09,0l-8.38-8.38c0-5.11,0-7.98,0-13.09l55-55c5.11,0,7.98,0,13.09,0l8.38,8.38v13.09Z" style="fill: #4d4d4e; stroke: #000; stroke-miterlimit: 10;"/>
      <path d="M251.92,546.82l-55,55c-5.11,0-7.98,0-13.09,0l-8.38-8.38c0-5.11,0-7.98,0-13.09l55-55c5.11,0,7.98,0,13.09,0l8.38,8.38v13.09Z" style="fill: #4d4d4e; stroke: #000; stroke-miterlimit: 10;"/>
      <path d="M339.4,546.82l-55,55c-5.11,0-7.98,0-13.09,0l-8.38-8.38c0-5.11,0-7.98,0-13.09l55-55c5.11,0,7.98,0,13.09,0l8.38,8.38v13.09Z" style="fill: #4d4d4e; stroke: #000; stroke-miterlimit: 10;"/>
      <path d="M426.87,546.82l-55,55c-5.11,0-7.98,0-13.09,0l-8.38-8.38c0-5.11,0-7.98,0-13.09l55-55c5.11,0,7.98,0,13.09,0l8.38,8.38v13.09Z" style="fill: #4d4d4e; stroke: #000; stroke-miterlimit: 10;"/>
      <path d="M514.35,546.82l-55,55c-5.11,0-7.98,0-13.09,0l-8.38-8.38c0-5.11,0-7.98,0-13.09l55-55c5.11,0,7.98,0,13.09,0l8.38,8.38v13.09Z" style="fill: #4d4d4e; stroke: #000; stroke-miterlimit: 10;"/>
      <path d="M601.82,546.82l-55,55c-5.11,0-7.98,0-13.09,0l-8.38-8.38c0-5.11,0-7.98,0-13.09l55-55c5.11,0,7.98,0,13.09,0l8.38,8.38v13.09Z" style="fill: #4d4d4e; stroke: #000; stroke-miterlimit: 10;"/>
      <path d="M689.3,546.82l-55,55c-5.11,0-7.98,0-13.09,0l-8.38-8.38c0-5.11,0-7.98,0-13.09l55-55c5.11,0,7.98,0,13.09,0l8.38,8.38v13.09Z" style="fill: #4d4d4e; stroke: #000; stroke-miterlimit: 10;"/>
      <path d="M76.97,634.3l-55,55c-5.11,0-7.98,0-13.09,0l-8.38-8.38c0-5.11,0-7.98,0-13.09l55-55c5.11,0,7.98,0,13.09,0l8.38,8.38v13.09Z" style="fill: #4d4d4e; stroke: #000; stroke-miterlimit: 10;"/>
      <path d="M164.45,634.3l-55,55c-5.11,0-7.98,0-13.09,0l-8.38-8.38c0-5.11,0-7.98,0-13.09l55-55c5.11,0,7.98,0,13.09,0l8.38,8.38v13.09Z" style="fill: #4d4d4e; stroke: #000; stroke-miterlimit: 10;"/>
      <path d="M251.92,634.3l-55,55c-5.11,0-7.98,0-13.09,0l-8.38-8.38c0-5.11,0-7.98,0-13.09l55-55c5.11,0,7.98,0,13.09,0l8.38,8.38v13.09Z" style="fill: #4d4d4e; stroke: #000; stroke-miterlimit: 10;"/>
      <path d="M339.4,634.3l-55,55c-5.11,0-7.98,0-13.09,0l-8.38-8.38c0-5.11,0-7.98,0-13.09l55-55c5.11,0,7.98,0,13.09,0l8.38,8.38v13.09Z" style="fill: #4d4d4e; stroke: #000; stroke-miterlimit: 10;"/>
      <path d="M426.87,634.3l-55,55c-5.11,0-7.98,0-13.09,0l-8.38-8.38c0-5.11,0-7.98,0-13.09l55-55c5.11,0,7.98,0,13.09,0l8.38,8.38v13.09Z" style="fill: #4d4d4e; stroke: #000; stroke-miterlimit: 10;"/>
      <path d="M514.35,634.3l-55,55c-5.11,0-7.98,0-13.09,0l-8.38-8.38c0-5.11,0-7.98,0-13.09l55-55c5.11,0,7.98,0,13.09,0l8.38,8.38v13.09Z" style="fill: #4d4d4e; stroke: #000; stroke-miterlimit: 10;"/>
      <path d="M601.82,634.3l-55,55c-5.11,0-7.98,0-13.09,0l-8.38-8.38c0-5.11,0-7.98,0-13.09l55-55c5.11,0,7.98,0,13.09,0l8.38,8.38v13.09Z" style="fill: #4d4d4e; stroke: #000; stroke-miterlimit: 10;"/>
      <path d="M689.3,634.3l-55,55c-5.11,0-7.98,0-13.09,0l-8.38-8.38c0-5.11,0-7.98,0-13.09l55-55c5.11,0,7.98,0,13.09,0l8.38,8.38v13.09Z" style="fill: #4d4d4e; stroke: #000; stroke-miterlimit: 10;"/>
    </g>
  </g>
</svg>