<?xml version="1.0" encoding="UTF-8"?>
<svg id="Layer_2" data-name="Layer 2" xmlns="http://www.w3.org/2000/svg" xmlns:xlink="http://www.w3.org/1999/xlink" viewBox="0 0 595.08 499.11">
  <defs>
    <style>
      .cls-1 {
        fill: url(#New_Gradient_Swatch_2);
      }

      .cls-1, .cls-2, .cls-3, .cls-4, .cls-5, .cls-6, .cls-7, .cls-8, .cls-9, .cls-10, .cls-11, .cls-12 {
        stroke-miterlimit: 10;
      }

      .cls-1, .cls-2, .cls-4, .cls-5, .cls-7, .cls-8, .cls-9, .cls-10, .cls-11, .cls-12 {
        stroke-width: 2px;
      }

      .cls-1, .cls-2, .cls-7, .cls-8, .cls-9, .cls-10, .cls-11, .cls-12 {
        stroke: #353637;
      }

      .cls-2 {
        fill: url(#New_Gradient_Swatch_1);
      }

      .cls-3 {
        stroke: #0d133d;
      }

      .cls-4, .cls-5 {
        stroke: #4a4b4c;
      }

      .cls-4, .cls-13 {
        fill: #505050;
      }

      .cls-5, .cls-14 {
        fill: #3b3b3c;
      }

      .cls-15 {
        fill: #4a4b4c;
      }

      .cls-6 {
        stroke: #024b3d;
      }

      .cls-7 {
        fill: url(#New_Gradient_Swatch_1-3);
      }

      .cls-8 {
        fill: url(#New_Gradient_Swatch_1-4);
      }

      .cls-9 {
        fill: url(#New_Gradient_Swatch_1-2);
      }

      .cls-10 {
        fill: url(#New_Gradient_Swatch_2-4);
      }

      .cls-11 {
        fill: url(#New_Gradient_Swatch_2-2);
      }

      .cls-12 {
        fill: url(#New_Gradient_Swatch_2-3);
      }
    </style>
    <radialGradient id="New_Gradient_Swatch_1" data-name="New Gradient Swatch 1" cx="77.19" cy="24.66" fx="77.19" fy="24.66" r="26.46" gradientUnits="userSpaceOnUse">
      <stop offset="0" stop-color="#5800bf"/>
      <stop offset=".68" stop-color="#8a479b"/>
      <stop offset="1" stop-color="#231f20"/>
    </radialGradient>
    <radialGradient id="New_Gradient_Swatch_1-2" data-name="New Gradient Swatch 1" cx="115.74" cy="31.16" fx="115.74" fy="31.16" r="15.32" xlink:href="#New_Gradient_Swatch_1"/>
    <radialGradient id="New_Gradient_Swatch_1-3" data-name="New Gradient Swatch 1" cx="149.41" cy="30.79" fx="149.41" fy="30.79" r="13.27" xlink:href="#New_Gradient_Swatch_1"/>
    <radialGradient id="New_Gradient_Swatch_1-4" data-name="New Gradient Swatch 1" cx="194.42" cy="25.51" fx="194.42" fy="25.51" r="16.5" xlink:href="#New_Gradient_Swatch_1"/>
    <radialGradient id="New_Gradient_Swatch_2" data-name="New Gradient Swatch 2" cx="389.48" cy="24.69" fx="389.48" fy="24.69" r="20.78" gradientUnits="userSpaceOnUse">
      <stop offset="0" stop-color="#01552c"/>
      <stop offset=".69" stop-color="#5cba47"/>
      <stop offset="1" stop-color="#231f20"/>
    </radialGradient>
    <radialGradient id="New_Gradient_Swatch_2-2" data-name="New Gradient Swatch 2" cx="428.02" cy="31.2" fx="428.02" fy="31.2" r="15.32" xlink:href="#New_Gradient_Swatch_2"/>
    <radialGradient id="New_Gradient_Swatch_2-3" data-name="New Gradient Swatch 2" cx="461.69" cy="30.82" fx="461.69" fy="30.82" r="13.27" xlink:href="#New_Gradient_Swatch_2"/>
    <radialGradient id="New_Gradient_Swatch_2-4" data-name="New Gradient Swatch 2" cx="509.43" cy="25.17" fx="509.43" fy="25.17" r="18.79" xlink:href="#New_Gradient_Swatch_2"/>
  </defs>
  <g id="Layer_1-2" data-name="Layer 1">
    <g>
      <g>
        <path class="cls-14" d="M88.06,206.5h85.44v-85.44h-85.44v85.44ZM130.79,133.15l14.76,22.21h-7.45v39.05h-14.61v-39.05h-7.45l14.76-22.21Z"/>
        <path class="cls-15" d="M174.38,207.38h-87.19v-87.19h87.19v87.19ZM88.94,205.63h83.7v-83.7h-83.7v83.7ZM138.96,195.28h-16.36v-39.05h-8.21l16.39-24.66,16.39,24.66h-8.21v39.05ZM124.35,193.54h12.87v-39.05h6.7l-13.13-19.76-13.13,19.76h6.7v39.05Z"/>
      </g>
      <g>
        <path class="cls-14" d="M86.32,293.12v-85.44H.87v85.44h85.44ZM12.97,250.4l22.21-14.76v7.45h39.05v14.61h-39.05v7.45l-22.21-14.76Z"/>
        <path class="cls-15" d="M87.19,206.8v87.19H0v-87.19h87.19ZM85.44,292.25v-83.7H1.75v83.7h83.7ZM75.1,242.22v16.36h-39.05v8.21l-24.66-16.39,24.66-16.39v8.21h39.05ZM73.35,256.83v-12.87h-39.05v-6.7l-19.76,13.13,19.76,13.13v-6.7h39.05Z"/>
      </g>
      <g>
        <path class="cls-14" d="M88.06,207.68h85.44v85.44h-85.44v-85.44ZM130.79,281.03l14.76-22.21h-7.45v-39.05h-14.61v39.05h-7.45l14.76,22.21Z"/>
        <path class="cls-15" d="M174.38,206.8h-87.19v87.19h87.19v-87.19ZM88.94,208.55h83.7v83.7h-83.7v-83.7ZM138.96,218.9h-16.36v39.05h-8.21l16.39,24.66,16.39-24.66h-8.21v-39.05ZM124.35,220.64h12.87v39.05h6.7l-13.13,19.76-13.13-19.76h6.7v-39.05Z"/>
      </g>
      <g>
        <path class="cls-14" d="M174.73,293.12v-85.44h85.44v85.44h-85.44ZM248.08,250.4l-22.21-14.76v7.45h-39.05v14.61h39.05v7.45l22.21-14.76Z"/>
        <path class="cls-15" d="M173.86,206.8v87.19h87.19v-87.19h-87.19ZM175.61,292.25v-83.7h83.7v83.7h-83.7ZM185.95,242.22v16.36h39.05v8.21l24.66-16.39-24.66-16.39v8.21h-39.05ZM187.7,256.83v-12.87h39.05v-6.7l19.76,13.13-19.76,13.13v-6.7h-39.05Z"/>
      </g>
    </g>
    <g>
      <path class="cls-2" d="M83.93,5.97c3.81,0,7.01.82,9.26,1.91l1.43-4.83c-1.57-.82-5.18-2.04-10.89-2.04-14.23,0-23.97,9.74-23.97,24.1s9.74,23.22,22.67,23.22c5.58,0,9.94-1.09,12.12-2.18l-1.23-4.7c-2.38,1.16-6.06,1.91-9.67,1.91-11.17,0-17.63-7.22-17.63-18.45,0-12.05,7.15-18.93,17.91-18.93Z"/>
      <path class="cls-9" d="M128.33,27.42c0-6.6-2.45-13.48-12.53-13.48-4.15,0-8.1,1.16-10.83,2.93l1.36,3.95c2.31-1.5,5.52-2.45,8.58-2.45,6.74,0,7.49,4.9,7.49,7.63v.68c-12.73-.07-19.81,4.29-19.81,12.26,0,4.77,3.4,9.46,10.08,9.46,4.7,0,8.24-2.32,10.08-4.9h.2l.48,4.15h5.45c-.41-2.25-.54-5.04-.54-7.9v-12.32ZM122.54,36.54c0,.61-.14,1.29-.34,1.91-.95,2.79-3.68,5.51-7.97,5.51-3.06,0-5.65-1.84-5.65-5.72,0-6.4,7.42-7.56,13.96-7.42v5.72Z"/>
      <path class="cls-7" d="M146.86,21.15h-.27l-.2-6.47h-5.24c.2,3.06.27,6.4.27,10.28v22.67h5.92v-17.57c0-1.02.14-1.97.27-2.79.82-4.49,3.81-7.69,8.03-7.69.82,0,1.43.07,2.04.2v-5.65c-.54-.14-1.02-.2-1.7-.2-4.02,0-7.63,2.79-9.12,7.22Z"/>
      <polygon class="cls-8" points="196.7 3.38 187.03 8.56 188.19 13.12 195.88 8.97 196.02 8.97 196.02 47.64 201.81 47.64 201.81 3.38 196.7 3.38"/>
    </g>
    <g>
      <path class="cls-1" d="M406.84,46.18c-2.18,1.09-6.54,2.18-12.12,2.18-12.94,0-22.67-8.17-22.67-23.22s9.74-24.1,23.97-24.1c5.72,0,9.33,1.23,10.9,2.04l-1.43,4.83c-2.25-1.09-5.45-1.91-9.26-1.91-10.76,0-17.91,6.88-17.91,18.93,0,11.24,6.47,18.45,17.64,18.45,3.61,0,7.29-.75,9.67-1.91l1.22,4.7Z"/>
      <path class="cls-11" d="M435.71,47.67l-.48-4.15h-.21c-1.84,2.59-5.38,4.9-10.08,4.9-6.67,0-10.08-4.7-10.08-9.46,0-7.97,7.08-12.32,19.81-12.26v-.68c0-2.72-.75-7.63-7.49-7.63-3.06,0-6.26.95-8.58,2.45l-1.36-3.95c2.72-1.77,6.67-2.93,10.83-2.93,10.08,0,12.53,6.88,12.53,13.48v12.32c0,2.86.14,5.65.54,7.9h-5.45ZM434.83,30.86c-6.54-.14-13.96,1.02-13.96,7.42,0,3.88,2.59,5.72,5.65,5.72,4.29,0,7.01-2.72,7.97-5.51.2-.61.34-1.29.34-1.91v-5.72Z"/>
      <path class="cls-12" d="M453.69,25c0-3.88-.07-7.22-.27-10.28h5.24l.21,6.47h.27c1.5-4.43,5.11-7.22,9.13-7.22.68,0,1.16.07,1.7.2v5.65c-.61-.14-1.22-.2-2.04-.2-4.22,0-7.22,3.2-8.03,7.69-.14.82-.27,1.77-.27,2.79v17.57h-5.92v-22.67Z"/>
      <path class="cls-10" d="M495.3,47.67v-3.68l4.7-4.56c11.3-10.76,16.41-16.48,16.48-23.15,0-4.49-2.18-8.65-8.78-8.65-4.02,0-7.35,2.04-9.4,3.75l-1.91-4.22c3.06-2.59,7.42-4.49,12.53-4.49,9.53,0,13.55,6.54,13.55,12.87,0,8.17-5.92,14.78-15.25,23.76l-3.54,3.27v.14h19.88v4.97h-28.26Z"/>
    </g>
    <g>
      <path class="cls-5" d="M423.19,120.19v85.44h85.44v-85.44h-85.44ZM483.74,190.16h-7.36l-6.87-28.38c-1.7-6.95-2.83-12.29-3.56-17.79h-.16c-.97,5.42-2.18,10.75-4.2,17.79l-7.76,28.38h-7.36l-13.83-54.49h7.44l6.47,27.57c1.62,6.79,3.07,13.58,4.04,18.84h.16c.89-5.42,2.59-11.89,4.45-18.92l7.28-27.49h7.36l6.63,27.65c1.54,6.47,2.99,12.94,3.8,18.68h.16c1.13-5.98,2.67-12.05,4.37-18.84l7.2-27.49h7.19l-15.44,54.49Z"/>
      <g>
        <path class="cls-5" d="M379.56,223.52h-.19c-.96,3.85-2.02,7.8-3.27,11.74l-6.35,18.77h19.54l-6.35-18.67c-1.44-4.23-2.4-8.08-3.37-11.84Z"/>
        <path class="cls-5" d="M337.75,205.63v85.44h85.44v-85.44h-85.44ZM397.94,280.97l-6.93-20.4h-23l-6.74,20.4h-8.66l22.04-64.87h10.11l22.13,64.87h-8.95Z"/>
      </g>
      <path class="cls-5" d="M423.19,205.63v85.44h85.44v-85.44h-85.44ZM462.7,280.36c-6.01,0-12.57-1.76-15.9-3.98l2.03-6.75c3.61,2.22,8.88,4.07,14.42,4.07,8.23,0,13.03-4.34,13.03-10.63,0-5.82-3.33-9.15-11.74-12.39-10.17-3.61-16.46-8.87-16.46-17.66,0-9.71,8.04-16.92,20.15-16.92,6.38,0,11,1.48,13.78,3.05l-2.22,6.56c-2.03-1.11-6.19-2.96-11.83-2.96-8.5,0-11.74,5.09-11.74,9.34,0,5.82,3.79,8.69,12.39,12.02,10.54,4.07,15.9,9.15,15.9,18.3,0,9.61-7.12,17.93-21.82,17.93Z"/>
      <g>
        <path class="cls-5" d="M508.64,205.63v85.44h85.44v-85.44h-85.44ZM568.01,271.26c-5.91,5.91-15.66,9.1-27.95,9.1-5.81,0-10.69-.28-14.82-.75v-62.19c4.97-.75,10.88-1.31,17.35-1.31,11.73,0,20.07,2.72,25.61,7.88,5.63,5.16,8.91,12.47,8.91,22.7s-3.19,18.76-9.1,24.57Z"/>
        <path class="cls-5" d="M542.97,222.58c-4.22,0-7.41.37-9.57.84v49.9c2.06.38,5.06.47,8.25.47,17.45,0,26.92-9.75,26.92-26.83.09-14.91-8.35-24.39-25.6-24.39Z"/>
      </g>
    </g>
    <g>
      <polygon class="cls-3" points="173.4 391.88 179.03 391.88 179.03 372.14 195.54 372.14 195.54 367.48 179.03 367.48 179.03 352.98 196.9 352.98 196.9 348.26 173.4 348.26 173.4 391.88"/>
      <polygon class="cls-3" points="213.79 348.26 208.16 348.26 208.16 391.88 232.43 391.88 232.43 387.15 213.79 387.15 213.79 348.26"/>
      <rect class="cls-3" x="241.95" y="348.26" width="5.63" height="43.62"/>
      <path class="cls-3" d="M283.7,351.56c-2.59-2.33-6.67-3.63-12.23-3.63-4.53,0-8.09.39-10.81.84v43.1h5.63v-17.47c1.29.32,2.85.39,4.53.39,5.5,0,10.36-1.62,13.33-4.79,2.2-2.27,3.37-5.37,3.37-9.32s-1.42-7.06-3.82-9.13ZM270.95,370.26c-1.88,0-3.43-.13-4.66-.45v-16.96c.97-.26,2.85-.45,5.31-.45,6.21,0,10.29,2.78,10.29,8.54s-4.14,9.32-10.94,9.32Z"/>
      <path class="cls-3" d="M335.68,352.27c3.62,0,6.67.78,8.8,1.81l1.36-4.6c-1.49-.78-4.92-1.94-10.36-1.94-13.53,0-22.78,9.26-22.78,22.91s9.26,22.07,21.55,22.07c5.31,0,9.45-1.04,11.52-2.07l-1.17-4.47c-2.27,1.1-5.76,1.81-9.19,1.81-10.61,0-16.76-6.86-16.76-17.54,0-11.46,6.8-17.99,17.02-17.99Z"/>
      <path class="cls-3" d="M367.59,348.26l-14.82,43.62h5.83l4.53-13.72h15.47l4.66,13.72h6.02l-14.89-43.62h-6.8ZM364.29,373.76l4.27-12.62c.84-2.65,1.55-5.31,2.2-7.9h.13c.65,2.52,1.29,5.11,2.27,7.96l4.27,12.55h-13.14Z"/>
      <path class="cls-3" d="M423.97,379.91c-1.04-4.53-3.04-7.64-6.41-8.8v-.19c4.6-1.55,8.22-5.37,8.22-11.13,0-3.37-1.23-6.34-3.43-8.28-2.72-2.46-6.6-3.56-12.62-3.56-3.88,0-7.96.32-10.81.91v43.04h5.63v-18.9h5.31c5.11.19,7.44,2.46,8.74,8.48,1.23,5.44,2.2,9.19,2.91,10.42h5.83c-.91-1.68-1.94-5.89-3.37-11.97ZM410.31,368.71h-5.76v-15.92c.91-.26,2.85-.52,5.57-.52,5.95.07,10.03,2.53,10.03,8.15,0,4.99-3.82,8.28-9.84,8.28Z"/>
    </g>
    <g>
      <path class="cls-13" d="M35.92,347.54v44.98h44.98v-44.98h-44.98ZM64.12,387.13h-4.47v-29.88h-.11l-5.94,3.21-.89-3.52,7.47-4h3.95v34.19Z"/>
      <path class="cls-15" d="M81.91,393.53h-46.98v-46.98h46.98v46.98ZM36.92,391.53h42.98v-42.98h-42.98v42.98ZM65.12,388.13h-6.47v-29.26l-5.7,3.08-1.4-5.53,8.38-4.48h5.2v36.19ZM60.65,386.13h2.47v-32.19h-2.69l-6.56,3.51.39,1.52,5.04-2.72h1.36v29.88Z"/>
    </g>
    <g>
      <path class="cls-13" d="M520.55,347.54v44.98h44.98v-44.98h-44.98ZM552.64,385.31h-19.18v-2.5l3.19-3.1c7.67-7.3,11.14-11.19,11.19-15.72,0-3.05-1.48-5.87-5.96-5.87-2.73,0-4.99,1.39-6.38,2.54l-1.29-2.87c2.08-1.76,5.04-3.05,8.51-3.05,6.47,0,9.2,4.44,9.2,8.74,0,5.55-4.02,10.03-10.35,16.13l-2.4,2.22v.09h13.5v3.37Z"/>
      <path class="cls-15" d="M566.53,393.53h-46.98v-46.98h46.98v46.98ZM521.55,391.53h42.98v-42.98h-42.98v42.98ZM553.64,386.31h-21.19v-3.92l3.49-3.39c7.64-7.27,10.84-10.96,10.88-15.01,0-3.22-1.67-4.86-4.96-4.86-2.58,0-4.7,1.45-5.74,2.31l-1.01.84-2.15-4.75.58-.49c2.51-2.12,5.76-3.29,9.15-3.29,7.05,0,10.2,4.89,10.2,9.74,0,6.11-4.42,10.84-10.66,16.85l-.64.59h12.04v5.38ZM534.45,384.31h17.19v-1.38h-13.5v-1.44l.32-.39,2.4-2.22c5.87-5.65,10.03-10.08,10.03-15.4,0-3.57-2.15-7.74-8.2-7.74-2.66,0-5.21.83-7.27,2.35l.46,1.01c1.5-1.03,3.55-1.99,5.98-1.99,4.36,0,6.96,2.57,6.96,6.87-.05,5.01-3.72,9.04-11.5,16.44l-2.88,2.8v1.07Z"/>
    </g>
    <g>
      <path class="cls-13" d="M520.55,453.13v44.98h44.98v-44.98h-44.98ZM550.63,491.98l-4.18-7.24c-1.7-2.77-2.77-4.56-3.79-6.46h-.1c-.92,1.89-1.85,3.64-3.55,6.51l-3.93,7.19h-4.86l10-16.56-9.61-16.17h4.9l4.32,7.67c1.21,2.14,2.14,3.79,3.01,5.54h.15c.92-1.94,1.75-3.45,2.96-5.54l4.47-7.67h4.86l-9.95,15.93,10.2,16.8h-4.9Z"/>
      <path class="cls-15" d="M566.53,499.11h-46.98v-46.98h46.98v46.98ZM521.55,497.11h42.98v-42.98h-42.98v42.98ZM557.31,492.98h-7.26l-4.47-7.73c-1.17-1.9-2.09-3.44-2.93-4.9-.7,1.36-1.52,2.85-2.78,4.96l-4.2,7.68h-7.22l10.61-17.56-10.21-17.17h7.25l4.61,8.18c.89,1.57,1.58,2.8,2.19,3.95.67-1.32,1.35-2.52,2.19-3.96l4.76-8.17h7.23l-10.58,16.93,10.8,17.79ZM551.2,490.98h2.55l-9.59-15.81,9.33-14.92h-2.48l-4.18,7.17c-1.14,1.96-1.99,3.49-2.92,5.46l-.27.57h-1.4l-.28-.55c-.82-1.65-1.69-3.2-2.99-5.49l-4.04-7.17h-2.56l9.02,15.17-9.4,15.55h2.49l3.65-6.67c1.75-2.94,2.64-4.65,3.52-6.46l.27-.56h1.22l.38.53c1.05,1.95,2.17,3.83,3.76,6.41l3.9,6.76Z"/>
    </g>
    <path class="cls-4" d="M37.27,453.13v44.98h44.98v-44.98h-44.98ZM53.83,495.81h-3.73l15.54-40.38h3.79l-15.59,40.38Z"/>
    <g>
      <path class="cls-6" d="M230.6,453.76h5.59v28.99c0,11.51-5.66,15.04-13.11,15.04-2.06,0-4.56-.45-5.98-1.03l.84-4.56c1.16.45,2.83.84,4.69.84,5.01,0,7.97-2.25,7.97-10.74v-28.54Z"/>
      <path class="cls-6" d="M254.33,453.76v25.65c0,9.71,4.31,13.82,10.09,13.82,6.43,0,10.54-4.24,10.54-13.82v-25.65h5.66v25.27c0,13.31-7.01,18.77-16.39,18.77-8.87,0-15.56-5.08-15.56-18.51v-25.52h5.66Z"/>
      <path class="cls-6" d="M330.07,478.06c-.32-6.04-.71-13.31-.64-18.71h-.19c-1.48,5.08-3.28,10.48-5.47,16.46l-7.65,21.02h-4.24l-7.01-20.64c-2.06-6.11-3.79-11.7-5.01-16.84h-.13c-.13,5.4-.45,12.66-.84,19.16l-1.16,18.58h-5.34l3.02-43.33h7.14l7.39,20.96c1.8,5.34,3.28,10.09,4.37,14.59h.19c1.09-4.37,2.64-9.13,4.56-14.59l7.71-20.96h7.14l2.7,43.33h-5.46l-1.09-19.03Z"/>
      <path class="cls-6" d="M348.46,454.28c2.7-.45,6.24-.84,10.74-.84,5.53,0,9.58,1.29,12.15,3.6,2.38,2.06,3.79,5.21,3.79,9.06s-1.16,7.01-3.34,9.26c-2.96,3.15-7.78,4.76-13.24,4.76-1.67,0-3.21-.06-4.5-.39v17.36h-5.59v-42.82ZM354.05,475.17c1.22.32,2.76.45,4.63.45,6.75,0,10.86-3.28,10.86-9.26s-4.05-8.49-10.22-8.49c-2.44,0-4.31.19-5.27.45v16.84Z"/>
    </g>
  </g>
</svg>
